<svg width="318" height="307" viewBox="0 0 318 307" fill="none" xmlns="http://www.w3.org/2000/svg">
<g clip-path="url(#clip0_11_129)">
<path d="M317.441 258.318C317.441 274.253 247.931 303.893 160.372 303.893C72.8137 303.893 0.731323 276.09 0.731323 260.156C0.731323 244.221 72.8137 246.189 160.372 246.189C247.931 246.189 317.441 242.383 317.441 258.318Z" fill="#3F3D56"/>
<path d="M272.648 113.753C256.145 48.8371 199.122 1.97677 132.19 0.0972434C96.8052 -0.896414 59.5703 10.8434 32.4605 51.9253C-16.0011 125.364 35.4386 176.112 71.301 200.226C88.6269 211.9 104.238 225.936 117.684 241.929C141.907 270.685 188.509 306.418 244.009 250.43C284.235 209.85 283.64 156.994 272.648 113.753Z" fill="#F2F2F2"/>
<path opacity="0.1" d="M317.441 258.318C317.441 274.253 247.931 303.893 160.372 303.893C72.8137 303.893 0.731323 276.09 0.731323 260.156C0.731323 244.221 72.8137 246.189 160.372 246.189C247.931 246.189 317.441 242.383 317.441 258.318Z" fill="black"/>
<path d="M159.27 288.824C246.828 288.824 317.808 275.907 317.808 259.972C317.808 244.037 246.828 231.12 159.27 231.12C71.7115 231.12 0.731323 244.037 0.731323 259.972C0.731323 275.907 71.7115 288.824 159.27 288.824Z" fill="#3F3D56"/>
<path d="M313.4 225.221C313.4 234.82 307.695 238.171 300.659 238.171C293.623 238.171 287.918 234.82 287.918 225.221C287.918 215.623 300.659 203.412 300.659 203.412C300.659 203.412 313.4 215.623 313.4 225.221Z" fill="#5262DE"/>
<path d="M300.162 219.779L299.783 227.034L299.771 226.842L295.074 220.276L299.757 227.522L299.71 228.43L299.701 228.443L299.705 228.518L298.742 238.2H300.029L300.183 237.418L304.855 230.189L300.195 236.703L300.325 228.67L305.755 218.732L300.346 227.409L300.404 223.798L304.147 216.607L300.42 222.842L300.525 216.345L304.533 210.621L300.542 215.324L300.608 203.412L300.212 218.506L296.153 212.292L300.162 219.779Z" fill="#3F3D56"/>
<path d="M293.606 258.992L289.681 236.798H311.868L308.796 258.992H293.606Z" fill="#2F2E41"/>
<path d="M85.6036 108.943H54.0061V146.002H85.6036V108.943Z" fill="#3F3D56"/>
<path d="M80.7005 114.694H58.9092V140.251H80.7005V114.694Z" fill="#F2F2F2"/>
<path d="M71.989 120.122L69.776 123.956L67.563 120.122H60.1943L69.776 136.724L79.3577 120.122H71.989Z" fill="#4DBA87"/>
<path d="M71.989 120.122L69.776 123.956L67.563 120.122H64.027L69.776 130.083L75.525 120.122H71.989Z" fill="#435466"/>
<path d="M51.162 45.2609C58.2348 45.2609 63.9685 38.9672 63.9685 31.2036C63.9685 23.4399 58.2348 17.1462 51.162 17.1462C44.0892 17.1462 38.3556 23.4399 38.3556 31.2036C38.3556 38.9672 44.0892 45.2609 51.162 45.2609Z" fill="#DA9169"/>
<path d="M220.336 161.516V237.5L233.041 258.214L234.008 259.789H284.14L285.153 161.516H220.336Z" fill="#2F2E41"/>
<path opacity="0.1" d="M233.042 258.214L233.821 161.516H220.336V237.5L233.042 258.214Z" fill="black"/>
<path d="M99.3108 159.49V235.474L86.6055 256.187L85.6385 257.763H35.5067L34.4938 159.49H99.3108Z" fill="#2F2E41"/>
<path opacity="0.1" d="M86.6054 256.187L85.8257 159.49H99.3107V235.474L86.6054 256.187Z" fill="black"/>
<path d="M300.345 157.97V162.529H27.9106V155.944L53.2297 142.773H278.064L300.345 157.97Z" fill="#2F2E41"/>
<path opacity="0.1" d="M27.9106 162.529V155.944L300.345 157.97V162.529H27.9106Z" fill="black"/>
<path d="M49.6852 177.219H72.4725L66.9024 180.765H54.749L49.6852 177.219Z" fill="#2A293B"/>
<path d="M49.6852 191.91H72.4725L66.9024 195.456H54.749L49.6852 191.91Z" fill="#2A293B"/>
<path d="M49.6852 212.679H72.4725L66.9024 216.225H54.749L49.6852 212.679Z" fill="#2A293B"/>
<path d="M49.6852 233.448H72.4725L66.9024 236.994H54.749L49.6852 233.448Z" fill="#2A293B"/>
<path d="M269.962 179.245H247.174L252.745 182.791H264.898L269.962 179.245Z" fill="#2A293B"/>
<path d="M269.962 193.936H247.174L252.745 197.482H264.898L269.962 193.936Z" fill="#2A293B"/>
<path d="M269.962 214.705H247.174L252.745 218.251H264.898L269.962 214.705Z" fill="#2A293B"/>
<path d="M269.962 235.474H247.174L252.745 239.02H264.898L269.962 235.474Z" fill="#2A293B"/>
<path d="M261.021 54.9047H158.708C158.199 54.9046 157.696 55.0047 157.227 55.1992C156.757 55.3937 156.331 55.6788 155.971 56.0382C155.612 56.3977 155.327 56.8244 155.133 57.2941C154.938 57.7637 154.838 58.2671 154.838 58.7754V127.721C154.838 128.229 154.938 128.732 155.133 129.202C155.327 129.672 155.612 130.098 155.971 130.458C156.331 130.817 156.757 131.102 157.227 131.297C157.696 131.491 158.199 131.591 158.708 131.591H197.547L196.091 140.885C196.091 140.885 187.776 145.304 193.623 145.434C199.47 145.564 227.015 145.434 227.015 145.434C227.015 145.434 232.342 145.434 223.897 140.755L222.528 131.591H261.021C261.529 131.591 262.032 131.491 262.501 131.297C262.971 131.102 263.398 130.817 263.757 130.458C264.116 130.098 264.401 129.672 264.596 129.202C264.79 128.732 264.89 128.229 264.89 127.721V58.7754C264.89 58.2671 264.79 57.7637 264.596 57.2941C264.401 56.8244 264.116 56.3977 263.757 56.0382C263.398 55.6788 262.971 55.3937 262.501 55.1992C262.032 55.0047 261.529 54.9046 261.021 54.9047Z" fill="#3F3D56"/>
<path d="M261.187 58.999H158.541V116.449H261.187V58.999Z" fill="#F2F2F2"/>
<path d="M209.864 57.8292C210.223 57.8292 210.514 57.5382 210.514 57.1793C210.514 56.8204 210.223 56.5294 209.864 56.5294C209.505 56.5294 209.215 56.8204 209.215 57.1793C209.215 57.5382 209.505 57.8292 209.864 57.8292Z" fill="#F2F2F2"/>
<path d="M209.864 128.797C211.228 128.797 212.333 127.691 212.333 126.327C212.333 124.963 211.228 123.858 209.864 123.858C208.501 123.858 207.396 124.963 207.396 126.327C207.396 127.691 208.501 128.797 209.864 128.797Z" fill="#F2F2F2"/>
<path d="M137.933 147.774H204.588L206.017 152.453V153.753H136.114V152.713L136.21 152.453L137.933 147.774Z" fill="#3F3D56"/>
<path d="M232.918 151.18C232.791 151.725 232.31 152.299 231.224 152.843C227.326 154.792 219.4 152.323 219.4 152.323C219.4 152.323 213.293 151.283 213.293 148.553C213.465 148.436 213.644 148.33 213.829 148.235C215.467 147.368 220.901 145.228 230.536 148.326C231.246 148.549 231.88 148.964 232.367 149.526C232.583 149.739 232.746 149.999 232.842 150.287C232.937 150.574 232.964 150.881 232.918 151.18Z" fill="#3F3D56"/>
<path opacity="0.1" d="M232.918 151.18C228.147 153.009 223.894 153.146 219.53 150.113C217.88 148.893 215.881 148.234 213.829 148.235C215.467 147.368 220.901 145.228 230.536 148.326C231.246 148.549 231.88 148.964 232.367 149.526C232.583 149.739 232.746 149.999 232.841 150.287C232.937 150.574 232.964 150.881 232.918 151.18Z" fill="black"/>
<path d="M226.936 150.113C227.869 150.113 228.625 149.88 228.625 149.593C228.625 149.306 227.869 149.073 226.936 149.073C226.003 149.073 225.247 149.306 225.247 149.593C225.247 149.88 226.003 150.113 226.936 150.113Z" fill="#F2F2F2"/>
<path opacity="0.1" d="M136.21 152.453H206.017V153.753H136.114V152.713L136.21 152.453Z" fill="black"/>
<path d="M56.5 9.49989C55.1774 8.99978 48.8464 7.01226 47.5 8.49998C46.3091 8.50255 41.1715 10.3163 41.5 11.5C39.6336 12.5313 37.9205 11.9893 36.0081 15.1922C34.2471 16.4827 32.0083 18.0918 32.3096 20.4712C32.4685 21.257 32.7587 22.0104 33.1679 22.6997C34.7925 25.9802 39.2256 28.5154 38.7896 32.2588C40.4036 29.5557 38.2447 28.2192 39.8587 25.5162C40.6274 24.2289 41.9627 22.7759 43.1231 23.5843C43.5117 23.855 43.7669 24.3404 44.1714 24.5779C45.1368 25.1446 46.1639 24.0612 47.0184 23.2938C49.9652 20.6476 54.1557 21.3409 57.8226 22.1654C59.5538 22.5546 61.4552 23.0653 62.4786 24.7204C63.8241 26.8966 61.2003 29.2469 60.5373 31.7072C60.4832 31.9169 60.4806 32.1365 60.5299 32.3474C60.5791 32.5582 60.6786 32.754 60.82 32.918C60.9613 33.082 61.1403 33.2092 61.3415 33.289C61.5428 33.3687 61.7603 33.3984 61.9756 33.3757C63.0759 33.2671 64.3792 33.1781 64.4444 32.6951C65.8287 32.7444 67.5249 32.5876 68.118 31.1456C68.2993 30.5751 68.3951 29.9809 68.4024 29.3823C68.6201 26.9601 69.6477 24.7503 70.3285 22.445C71.0093 20.1396 71.3053 17.4379 70.1564 15.3939C69.7464 14.7139 69.2393 14.0974 68.6512 13.5639C62.3142 8.10197 57.8226 10 56.5 9.49989Z" fill="#2F2E41"/>
<path d="M42.0628 36.1952C42.0628 36.1952 43.4807 48.0155 38.2816 48.9611C33.0825 49.9068 43.0081 65.9824 43.0081 65.9824L66.6403 68.8193L60.9686 49.9068C60.9686 49.9068 57.1874 48.4883 59.5507 39.0321C61.9139 29.5758 42.0628 36.1952 42.0628 36.1952Z" fill="#DA9169"/>
<path d="M39.4631 265.273L36.6275 239.268H27.6471L29.5379 265.273H39.4631Z" fill="#DA9169"/>
<path d="M112.723 207.117L108.469 189.15L100.434 190.096L101.852 211.845L112.723 207.117Z" fill="#DA9169"/>
<path d="M20.5575 139.978C20.5575 139.978 21.0301 167.401 23.866 176.384C26.7019 185.368 26.2292 185.841 25.7566 187.259C25.284 188.678 24.8113 187.732 24.8113 190.096C24.8113 192.46 23.866 229.812 24.8113 233.122C25.7566 236.432 21.9754 242.105 24.8113 242.578C27.6472 243.051 40.8812 242.578 41.3539 239.741C41.8265 236.904 37.5727 235.959 39.4633 234.068C41.3539 232.176 44.1898 193.406 44.1898 193.406L50.8068 166.455L63.0956 152.271H89.091L97.126 183.477C97.126 183.477 93.8175 192.46 96.1807 192.46C98.544 192.46 112.723 195.297 112.723 184.895C112.723 174.493 107.997 143.76 107.052 142.815C106.106 141.869 107.524 138.559 106.106 137.141C104.688 135.722 88.1458 125.793 82.0014 123.902C75.857 122.011 67.2375 119.76 67.2375 119.76L20.5575 139.978Z" fill="#3F3D56"/>
<path d="M112.723 203.335C112.723 203.335 105.634 200.971 102.325 208.063C99.0165 215.155 100.435 217.046 100.435 217.046C100.435 217.046 111.305 220.829 113.196 218.938C114.018 218.115 116.63 217.829 119.319 217.769C123.414 217.677 124.503 211.881 120.636 210.532C120.521 210.492 120.404 210.457 120.286 210.427C116.504 209.481 112.723 203.335 112.723 203.335Z" fill="#2F2E41"/>
<path d="M34.2642 54.8713C34.2642 54.8713 57.4239 59.5995 63.0956 52.0345C68.7673 44.4694 71.1306 73.3111 71.1306 73.3111L67.2213 103.239L69.7126 120.12C69.7126 120.12 47.4983 138.086 40.4086 139.505C33.319 140.923 22.4481 141.869 22.4481 141.869C22.4481 141.869 25.7567 89.3867 25.7567 88.4411C25.7567 87.4955 34.2642 54.8713 34.2642 54.8713Z" fill="#5262DE"/>
<path d="M41.3076 46.0039C41.3076 46.0039 36.1548 43.0511 34.7369 45.8879C33.3189 48.7248 20.0849 55.817 18.6669 55.817C17.249 55.817 21.5028 95.0605 19.6122 99.7886C17.7216 104.517 8.74138 139.032 13.9405 141.869C19.1396 144.706 15.3584 139.032 20.5575 146.124C25.7566 153.217 51.2794 153.217 52.6974 150.38C54.1153 147.543 41.3539 126.266 43.7171 106.408C46.0803 86.5499 49.8615 59.1267 46.553 55.3442C43.2445 51.5617 41.3076 46.0039 41.3076 46.0039Z" fill="#D0CDE1"/>
<path d="M58.3691 49.1976L59.0275 46.9312C59.0275 46.9312 78.6929 53.4529 79.6382 57.7082C80.5835 61.9636 80.1108 91.7508 76.8023 94.1149C73.4938 96.4789 68.7673 100.261 72.0759 105.935C75.3844 111.609 79.1655 117.756 82.0014 118.228C84.8373 118.701 90.0364 122.011 88.6184 125.321C87.2005 128.63 70.1853 122.484 70.1853 122.484C70.1853 122.484 58.8418 113.973 59.3144 100.734C59.7871 87.4954 58.3691 49.1976 58.3691 49.1976Z" fill="#D0CDE1"/>
<path d="M74.9116 104.99L63.5681 126.266C63.5681 126.266 47.0256 143.287 56.4785 145.179C65.9314 147.07 71.1305 129.576 71.1305 129.576L83.4193 112.082L74.9116 104.99Z" fill="#DA9169"/>
<path d="M46.0403 9.93202C45.4688 9.88966 44.8963 10.0007 44.3821 10.2538C43.9171 10.5935 43.5339 11.0328 43.2604 11.5397C41.9998 13.4367 40.3564 15.049 38.436 16.273C37.0024 17.1851 35.1799 18.3224 35.4252 20.0042C35.5583 20.5681 35.7953 21.1022 36.1239 21.5792C37.451 23.9214 37.9792 26.6321 37.6288 29.3014L41.5705 23.57C42.1962 22.6601 43.2832 21.6331 44.2279 22.2045C44.5442 22.3958 44.7519 22.7389 45.0813 22.9068C45.8671 23.3073 46.7032 22.5416 47.3988 21.9992C49.7976 20.1289 53.2089 20.6189 56.1939 21.2016C57.6031 21.4767 59.151 21.8377 59.9841 23.0075C61.3684 24.9516 59.9229 27.7606 60.7308 30.0065C60.957 29.8481 61.1491 29.6458 61.2957 29.4118C61.4423 29.1778 61.5404 28.9167 61.5843 28.644C62.7112 28.6788 64.0919 28.568 64.5748 27.5488C64.7216 27.1494 64.7999 26.728 64.8062 26.3025C64.9835 24.5905 65.82 23.0286 66.3742 21.3992C66.9284 19.7698 67.1694 17.8603 66.2341 16.4156C65.892 15.9261 65.479 15.4902 65.0088 15.1221C59.7015 10.6611 52.7234 9.9254 46.0403 9.93202Z" fill="#2F2E41"/>
<path opacity="0.1" d="M73.6836 56L77.9737 56.9564C77.9737 56.9564 87.9575 78.4305 85.6553 93.1264C83.353 107.822 81.9717 104.728 81.9717 104.728C81.9717 104.728 78.2881 97.7672 70 99.3141L73.6836 56Z" fill="black"/>
<path d="M74.9117 55.817L79.3154 56.9863C79.3154 56.9863 89.5637 83.2402 87.2004 101.207C84.8372 119.174 83.4193 115.392 83.4193 115.392C83.4193 115.392 79.6381 106.881 71.1305 108.772L74.9117 55.817Z" fill="#D0CDE1"/>
<path d="M28.302 261.836C27.1622 263.386 27.3907 265.601 26.3811 267.238C25.506 268.657 23.8567 269.401 22.762 270.659C22.4127 271.077 22.1014 271.525 21.8316 271.998C20.8161 273.699 19.9908 275.88 20.9908 277.591C21.7953 278.967 23.4863 279.504 25.0372 279.871C26.9974 280.334 29.034 280.705 31.0168 280.351C32.9997 279.997 34.9375 278.782 35.6445 276.896C35.7834 276.421 35.9486 275.955 36.1393 275.499C37.214 273.382 40.5849 273.36 41.6848 271.256C42.4545 269.784 41.747 268.005 41.0397 266.501L38.8796 261.911C38.1627 260.387 35.2567 261.263 33.7417 260.898C31.7658 260.422 29.7234 259.898 28.302 261.836Z" fill="#2F2E41"/>
<path d="M12.5225 114.446L32.3736 145.179C32.3736 145.179 44.6623 160.782 48.4435 153.689C52.2247 146.597 35.2094 134.777 35.2094 134.777L22.448 111.136L12.5225 114.446Z" fill="#DA9169"/>
<path opacity="0.1" d="M23.9163 58.8936L20.1871 58C20.1871 58 12.7287 60.2341 10.8641 69.6172C8.99944 79.0002 10.3979 116.533 12.7287 116.979C15.0594 117.426 24.2403 110.444 25.7098 111.925C27.1794 113.405 22.5179 105.809 23.9163 101.788C25.3147 97.7664 23.9163 58.8936 23.9163 58.8936Z" fill="black"/>
<path d="M22.448 56.7626L18.6669 55.817C18.6669 55.817 11.1046 58.1811 9.21398 68.1102C7.3234 78.0392 8.74133 117.756 11.1046 118.228C13.4678 118.701 22.7765 111.313 24.2665 112.879C25.7566 114.446 21.0301 106.408 22.448 102.153C23.8659 97.8974 22.448 56.7626 22.448 56.7626Z" fill="#D0CDE1"/>
<path d="M200.149 77.8676H187.933V80.8095H200.149V77.8676Z" fill="#222B56"/>
<path d="M242.453 77.8676H238.154V80.8095H242.453V77.8676Z" fill="#222B56"/>
<path d="M251.049 77.8676H246.751V80.8095H251.049V77.8676Z" fill="#222B56"/>
<path d="M233.63 77.8676H204.447V80.8095H233.63V77.8676Z" fill="#222B56"/>
<path d="M184.766 96.8771H172.55V99.819H184.766V96.8771Z" fill="#222B56"/>
<path d="M227.069 96.8771H222.771V99.819H227.069V96.8771Z" fill="#222B56"/>
<path d="M235.666 96.8771H231.368V99.819H235.666V96.8771Z" fill="#222B56"/>
<path d="M218.247 96.8771H189.064V99.819H218.247V96.8771Z" fill="#222B56"/>
<path d="M235.213 84.4304H222.997V87.3723H235.213V84.4304Z" fill="#222B56"/>
<path d="M251.728 84.4304H239.512V87.3723H251.728V84.4304Z" fill="#222B56"/>
<path d="M176.848 84.4304H172.55V87.3723H176.848V84.4304Z" fill="#222B56"/>
<path d="M185.444 84.4304H181.146V87.3723H185.444V84.4304Z" fill="#222B56"/>
<path d="M218.925 84.4304H189.743V87.3723H218.925V84.4304Z" fill="#222B56"/>
<path d="M209.876 90.7668H197.66V93.7088H209.876V90.7668Z" fill="#222B56"/>
<path d="M193.362 90.7668H181.146V93.7088H193.362V90.7668Z" fill="#222B56"/>
<path d="M176.848 90.7668H172.55V93.7088H176.848V90.7668Z" fill="#222B56"/>
<path d="M251.728 90.7668H247.429V93.7088H251.728V90.7668Z" fill="#222B56"/>
<path d="M243.131 90.7668H213.948V93.7088H243.131V90.7668Z" fill="#222B56"/>
</g>
<defs>
<clipPath id="clip0_11_129">
<rect width="318" height="307" fill="white"/>
</clipPath>
</defs>
</svg>
