<svg width="97" height="79" viewBox="0 0 97 79" fill="none" xmlns="http://www.w3.org/2000/svg">
<path d="M36.7246 43.5459C37.0948 36.9407 40.3293 31.1213 45.2091 26.996C49.9945 22.9442 56.4356 20.4677 63.4636 20.4677C70.4845 20.4677 76.9257 22.9442 81.7146 26.996C86.5907 31.1213 89.8252 36.9407 90.199 43.5389C90.5693 50.3258 87.8412 56.6307 83.0558 61.3042C78.1762 66.0583 71.2355 69.0414 63.4636 69.0414C55.6917 69.0414 48.7371 66.0583 43.8608 61.3042C39.0719 56.6307 36.3509 50.3259 36.7246 43.5459Z" fill="white"/>
<path d="M50.4068 44.1645C50.5875 40.9393 52.1668 38.0979 54.5494 36.0838C56.886 34.1053 60.031 32.8962 63.4624 32.8962C66.8905 32.8962 70.0354 34.1053 72.3737 36.0838C74.7545 38.0979 76.3338 40.9393 76.5164 44.161C76.6971 47.4748 75.3651 50.5533 73.0286 52.8351C70.646 55.1564 67.2572 56.6129 63.4624 56.6129C59.6677 56.6129 56.272 55.1564 53.8911 52.8351C51.5528 50.5533 50.2243 47.4748 50.4068 44.1645Z" fill="#777777"/>
<path d="M29.6167 50.6811C29.6389 51.9432 30.0415 54.3957 30.6452 56.3111C31.9141 60.365 34.0664 64.1154 37.0613 67.4206C40.1346 70.818 43.9191 73.5468 48.2904 75.4842C52.885 77.5189 57.8633 78.5558 63.0344 78.5474C68.1969 78.5406 73.1754 77.483 77.77 75.433C82.1412 73.4769 85.9223 70.7361 88.9904 67.3371C91.9837 64.0181 94.1326 60.261 95.4049 56.2069C96.0445 54.1586 96.4486 52.0797 96.6107 49.9938C96.7693 47.9387 96.7028 45.8801 96.4112 43.8233C95.8416 39.8154 94.4549 36.0547 92.3196 32.6266C90.3668 29.4766 87.8495 26.7189 84.8564 24.3977L84.8632 24.3925L54.657 1.19938C54.6297 1.1789 54.6075 1.15671 54.5786 1.13804C52.5967 -0.3833 49.2642 -0.378207 47.0846 1.14653C44.881 2.68835 44.6286 5.23803 46.5899 6.84629L46.5814 6.85477L59.18 17.0998L20.7806 17.1407C20.7618 17.1407 20.743 17.1407 20.7294 17.1407C17.5554 17.1441 14.5043 19.2265 13.9006 21.8581C13.2797 24.5392 15.4355 26.7631 18.7357 26.7751L18.7306 26.7871L38.1938 26.7495L3.46284 53.4082C3.4185 53.4406 3.37073 53.4747 3.3298 53.5072C0.0535265 56.016 -1.00557 60.1876 1.05809 62.8277C3.15246 65.5122 7.60553 65.5173 10.9159 62.8431L29.8709 47.3298C29.8709 47.3298 29.5946 49.4242 29.6167 50.6811ZM78.3242 57.6941C74.4187 61.6731 68.9508 63.9295 63.0344 63.9414C57.1094 63.9517 51.6416 61.7158 47.736 57.7437C45.8275 55.8079 44.4257 53.5805 43.5609 51.2082C42.7133 48.8767 42.3842 46.402 42.6025 43.9052C42.8088 41.4646 43.5354 39.1365 44.6952 37.0303C45.8344 34.9598 47.4035 33.0889 49.3409 31.5062C53.1373 28.4123 57.9708 26.7375 63.0259 26.7307C68.0861 26.724 72.9161 28.3834 76.7159 31.4669C78.65 33.0428 80.2174 34.9069 81.3567 36.974C82.5215 39.0786 83.2429 41.398 83.4578 43.8455C83.6728 46.3389 83.3435 48.8102 82.4959 51.1433C81.6296 53.5226 80.2327 55.7499 78.3242 57.6941Z" fill="#999999"/>
</svg>
