<svg width="80" height="80" viewBox="0 0 99 78" fill="none" xmlns="http://www.w3.org/2000/svg">
<path fill-rule="evenodd" clip-rule="evenodd" d="M10.8014 10.1934C10.6167 4.89021 14.7501 0.000141099 20.337 0H78.0499C83.6369 0.000141099 87.7701 4.89035 87.5854 10.1934C87.4079 15.2878 87.6385 21.887 89.2999 27.2674C90.9663 32.6647 93.7839 36.0836 98.3868 36.5219V41.4781C93.784 41.9164 90.9663 45.3353 89.2998 50.7326C87.6385 56.1131 87.4079 62.7122 87.5854 67.8066C87.7703 73.1096 83.6369 77.9999 78.0499 78H20.3369C14.7501 77.9999 10.6169 73.1096 10.8014 67.8066C10.9791 62.7123 10.7484 56.1131 9.08706 50.7326C7.42054 45.3353 4.60293 41.9164 0 41.4782V36.5218C4.60293 36.0836 7.42068 32.6647 9.08706 27.2675C10.7484 21.8869 10.9789 15.2878 10.8014 10.1934Z" fill="url(#paint0_linear_701_21)"/>
<path d="M50.6535 60.4384C59.6093 60.4384 65.0062 55.9459 65.0063 48.5361C65.0063 42.9351 61.1555 38.8801 55.4378 38.2384L55.4377 38.0051C59.6387 37.3048 62.9349 33.3083 62.935 28.845C62.9349 22.4854 58.0341 18.343 50.566 18.3429L34.1229 18.343C34.0275 18.343 33.9359 18.381 33.8683 18.4484C33.8009 18.516 33.7629 18.6075 33.7629 18.703L33.7628 60.0783C33.7628 60.1256 33.7721 60.1724 33.7903 60.2162C33.8083 60.2599 33.8349 60.2996 33.8683 60.333C33.9018 60.3664 33.9414 60.393 33.9851 60.411C34.0289 60.4291 34.0757 60.4384 34.123 60.4384H50.6535ZM40.2974 23.6815H48.9908C53.7166 23.6814 56.4004 25.8402 56.4006 29.7493C56.4004 33.9209 53.279 36.2547 47.6197 36.2547H40.2974V23.6815ZM40.2974 55.0999V41.2431H48.9323C55.1167 41.243 58.3257 43.5768 58.3259 48.1278C58.3259 52.6787 55.2045 55.0999 49.3116 55.1001L40.2974 55.0999Z" fill="white"/>
<defs>
<linearGradient id="paint0_linear_701_21" x1="0.176092" y1="38.9999" x2="99.2226" y2="37.3492" gradientUnits="userSpaceOnUse">
<stop stop-color="#999999"/>
<stop offset="1" stop-color="#666666"/>
</linearGradient>
</defs>
</svg>
