<svg width="324" height="309" viewBox="0 0 324 309" fill="none" xmlns="http://www.w3.org/2000/svg">
<path d="M277.047 114.974C260.233 49.3382 202.134 1.95821 133.939 0.0578388C97.8866 -0.946838 59.9491 10.9232 32.3279 52.4606C-17.0481 126.713 35.3621 178.024 71.9012 202.406C89.554 214.209 105.46 228.402 119.159 244.572C143.84 273.647 191.32 309.776 247.867 253.167C288.853 212.136 288.247 158.694 277.047 114.974Z" fill="#F2F2F2"/>
<path d="M322.685 261.142C322.685 277.254 251.863 307.223 162.653 307.223C73.4424 307.223 0 279.112 0 263C0 246.889 73.4424 248.879 162.653 248.879C251.863 248.879 322.685 245.031 322.685 261.142Z" fill="#3F3D56"/>
<path opacity="0.1" d="M322.685 261.142C322.685 277.254 251.863 307.223 162.653 307.223C73.4424 307.223 0 279.112 0 263C0 246.889 73.4424 248.879 162.653 248.879C251.863 248.879 322.685 245.031 322.685 261.142Z" fill="black"/>
<path d="M161.53 291.987C250.74 291.987 323.06 278.926 323.06 262.814C323.06 246.703 250.74 233.642 161.53 233.642C72.3194 233.642 0 246.703 0 262.814C0 278.926 72.3194 291.987 161.53 291.987Z" fill="#3F3D56"/>
<path d="M288.699 264.506L289.747 163.601H222.682V241.62L235.828 262.888L236.829 264.506H288.699Z" fill="#2F2E41"/>
<path opacity="0.1" d="M222.682 163.601V241.62L235.828 262.888L236.635 163.601H222.682Z" fill="black"/>
<path d="M31.4427 262.425L30.3949 161.52H97.4599V239.54L84.3141 260.808L83.3134 262.425H31.4427Z" fill="#2F2E41"/>
<path opacity="0.1" d="M97.46 161.52V239.539L84.3142 260.808L83.5071 161.52H97.46Z" fill="black"/>
<path d="M49.7808 144.356H282.412L305.466 159.96V164.641H23.5837V157.88L49.7808 144.356Z" fill="#2F2E41"/>
<path opacity="0.1" d="M305.466 159.96V164.641H23.5837V157.88L305.466 159.96Z" fill="black"/>
<path opacity="0.1" d="M63.9272 183.366H51.3526L46.1133 179.725H69.6907L63.9272 183.366Z" fill="black"/>
<path opacity="0.1" d="M63.9272 198.45H51.3526L46.1133 194.808H69.6907L63.9272 198.45Z" fill="black"/>
<path opacity="0.1" d="M63.9272 219.775H51.3526L46.1133 216.134H69.6907L63.9272 219.775Z" fill="black"/>
<path opacity="0.1" d="M63.9272 241.1H51.3526L46.1133 237.459H69.6907L63.9272 241.1Z" fill="black"/>
<path opacity="0.1" d="M256.215 185.446H268.789L274.029 181.805H250.451L256.215 185.446Z" fill="black"/>
<path opacity="0.1" d="M256.215 200.53H268.789L274.029 196.889H250.451L256.215 200.53Z" fill="black"/>
<path opacity="0.1" d="M256.215 221.855H268.789L274.029 218.214H250.451L256.215 221.855Z" fill="black"/>
<path opacity="0.1" d="M256.215 243.181H268.789L274.029 239.54H250.451L256.215 243.181Z" fill="black"/>
<path d="M199.345 131.34L197.597 142.417C197.597 142.417 188.993 146.955 195.043 147.088C201.092 147.222 229.593 147.088 229.593 147.088C229.593 147.088 235.105 147.088 226.366 142.284L224.619 130.673L199.345 131.34Z" fill="#3F3D56"/>
<path opacity="0.1" d="M193.826 146.968C195.001 146.025 196.263 145.195 197.597 144.49L199.345 133.413L224.619 133.436L226.366 144.356C227.803 145.092 229.156 145.976 230.405 146.994C231.527 146.74 232.754 145.796 226.366 142.284L224.619 130.673L199.345 131.34L197.597 142.417C197.597 142.417 190.367 146.231 193.826 146.968V146.968Z" fill="black"/>
<path d="M264.778 54.1344H158.917C156.705 54.1344 154.913 55.9138 154.913 58.1088V128.9C154.913 131.095 156.705 132.875 158.917 132.875H264.778C266.989 132.875 268.781 131.095 268.781 128.9V58.1088C268.781 55.9138 266.989 54.1344 264.778 54.1344Z" fill="#3F3D56"/>
<path d="M264.95 58.3384H158.745V117.327H264.95V58.3384Z" fill="#F2F2F2"/>
<path d="M211.847 57.1373C212.218 57.1373 212.519 56.8386 212.519 56.47C212.519 56.1015 212.218 55.8027 211.847 55.8027C211.476 55.8027 211.175 56.1015 211.175 56.47C211.175 56.8386 211.476 57.1373 211.847 57.1373Z" fill="#F2F2F2"/>
<path d="M268.781 121.998V128.901C268.781 129.422 268.678 129.939 268.477 130.422C268.276 130.904 267.981 131.342 267.609 131.711C267.237 132.08 266.796 132.373 266.31 132.573C265.824 132.772 265.304 132.875 264.778 132.875H158.916C158.391 132.875 157.87 132.772 157.384 132.573C156.899 132.373 156.457 132.08 156.085 131.711C155.714 131.342 155.419 130.904 155.218 130.422C155.016 129.939 154.913 129.422 154.913 128.901V121.998H268.781Z" fill="#3F3D56"/>
<path d="M211.847 130.005C213.258 130.005 214.402 128.87 214.402 127.47C214.402 126.069 213.258 124.934 211.847 124.934C210.437 124.934 209.293 126.069 209.293 127.47C209.293 128.87 210.437 130.005 211.847 130.005Z" fill="#F2F2F2"/>
<path d="M207.867 154.295V155.63H135.539V154.562L135.639 154.295L137.422 149.49H206.388L207.867 154.295Z" fill="#3F3D56"/>
<path d="M235.701 152.988C235.569 153.548 235.072 154.137 233.948 154.695C229.915 156.697 221.714 154.162 221.714 154.162C221.714 154.162 215.395 153.094 215.395 150.291C215.573 150.171 215.758 150.061 215.949 149.964C217.645 149.074 223.267 146.876 233.236 150.057C233.97 150.286 234.626 150.713 235.131 151.29C235.354 151.508 235.522 151.776 235.621 152.071C235.721 152.366 235.748 152.681 235.701 152.988V152.988Z" fill="#3F3D56"/>
<path opacity="0.1" d="M235.701 152.988C230.764 154.866 226.364 155.006 221.848 151.893C219.571 150.323 217.502 149.935 215.949 149.964C217.645 149.074 223.267 146.876 233.236 150.057C233.97 150.286 234.626 150.713 235.131 151.29C235.354 151.508 235.522 151.776 235.621 152.071C235.721 152.366 235.748 152.681 235.701 152.988V152.988Z" fill="black"/>
<path d="M229.511 151.893C230.476 151.893 231.259 151.654 231.259 151.359C231.259 151.064 230.476 150.825 229.511 150.825C228.546 150.825 227.764 151.064 227.764 151.359C227.764 151.654 228.546 151.893 229.511 151.893Z" fill="#F2F2F2"/>
<path opacity="0.1" d="M135.539 154.562L135.639 154.295H207.867V155.63H135.539V154.562Z" fill="black"/>
<path d="M249.199 86.1976C248.628 85.6311 241.305 76.4728 240.069 74.9622C238.737 73.4516 238.167 73.7348 237.311 73.8292C236.455 73.9236 227.229 75.5287 226.183 75.6231C225.137 75.8119 224.471 76.1896 225.137 77.1337C225.708 77.9835 231.794 86.4808 233.126 88.4635L208.873 94.2229L189.662 62.2161C188.901 61.0832 188.711 60.7055 186.999 60.7999C185.287 60.8943 171.877 62.0273 170.926 62.0273C169.974 62.1217 168.928 62.4994 169.879 64.7653C170.83 67.0313 186.048 99.5101 186.428 100.454C186.809 101.398 187.95 102.909 190.518 102.343C193.181 101.682 202.311 99.3213 207.352 97.9995C210.015 102.72 215.341 112.351 216.387 113.767C217.718 115.655 218.67 115.277 220.667 114.711C222.284 114.239 245.585 105.93 246.631 105.458C247.677 104.986 248.343 104.703 247.582 103.664C247.012 102.909 240.925 94.6949 237.691 90.4462C239.879 89.8797 247.772 87.8026 248.628 87.5194C249.58 87.2361 249.77 86.764 249.199 86.1975V86.1976ZM205.164 95.167C204.879 95.2614 191.279 98.4715 190.613 98.6604C189.852 98.8492 189.852 98.7548 189.852 98.4716C189.662 98.1883 173.684 65.3318 173.398 64.9542C173.208 64.5765 173.208 64.1989 173.398 64.1989C173.589 64.1989 186.238 63.0659 186.618 63.0659C187.094 63.0659 186.999 63.1603 187.189 63.4435C187.189 63.4435 204.974 93.9396 205.259 94.4117C205.64 94.8838 205.45 95.0726 205.164 95.167V95.167ZM243.398 102.248C243.588 102.626 243.873 102.815 243.112 103.003C242.446 103.287 220.191 110.746 219.716 110.934C219.24 111.123 218.955 111.218 218.384 110.368C217.814 109.518 210.585 97.1497 210.585 97.1497L234.267 91.0127C234.838 90.8239 235.028 90.7295 235.408 91.296C235.789 91.9569 243.207 101.965 243.398 102.248V102.248ZM244.919 85.6311C244.349 85.7255 235.694 87.8971 235.694 87.8971L228.561 78.2667C228.371 77.9835 228.18 77.7002 228.656 77.6058C229.131 77.5114 237.216 76.0952 237.596 76.0008C237.976 75.9063 238.262 75.8119 238.737 76.4728C239.213 77.0393 245.3 84.7814 245.585 85.0646C245.87 85.3478 245.49 85.5367 244.919 85.6311V85.6311Z" fill="#FB503B"/>
<path d="M147.731 72.1466C155.638 72.1466 162.049 65.7832 162.049 57.9334C162.049 50.0837 155.638 43.7202 147.731 43.7202C139.824 43.7202 133.414 50.0837 133.414 57.9334C133.414 65.7832 139.824 72.1466 147.731 72.1466Z" fill="#DA9169"/>
<path d="M137.181 65.0401V87.482H160.541C160.541 87.482 157.527 68.7804 159.034 63.1699L137.181 65.0401Z" fill="#DA9169"/>
<path d="M183.525 95.3366C183.525 95.3366 161.295 84.4897 161.295 83.7416C161.295 82.9935 159.034 78.1311 157.527 78.1311C156.02 78.1311 143.21 74.0168 136.051 80.0013L135.298 84.8637L107.793 102.817L115.328 130.122C115.328 130.122 120.227 135.358 118.719 139.098C117.212 142.839 119.85 161.914 119.85 161.914L179.003 160.044V134.61C179.003 134.61 180.887 128.625 182.018 126.755C183.148 124.885 182.018 119.275 182.018 119.275L191.06 108.054C191.06 108.054 189.93 97.5808 183.525 95.3366V95.3366Z" fill="#D0CDE1"/>
<path opacity="0.1" d="M108.735 111.981L110.43 102.817C110.43 102.817 100.634 145.083 101.765 149.945C102.895 154.808 111.184 162.288 112.314 162.662C113.445 163.036 123.994 130.496 123.994 130.496L108.735 111.981Z" fill="black"/>
<path d="M114.198 101.695L107.793 102.817C107.793 102.817 97.9969 145.083 99.1272 149.945C100.258 154.808 108.547 162.288 109.677 162.662C110.807 163.036 121.357 130.496 121.357 130.496L114.198 101.695Z" fill="#D0CDE1"/>
<path opacity="0.1" d="M185.597 114.225L188.8 108.054C188.8 108.054 193.321 150.319 190.307 154.434C187.293 158.548 175.369 160.088 175.369 160.088L175.236 129.374L185.597 114.225Z" fill="black"/>
<path d="M186.162 103.191L191.06 108.054C191.06 108.054 195.582 150.319 192.567 154.434C189.553 158.548 177.63 160.088 177.63 160.088L177.496 129.374L186.162 103.191Z" fill="#D0CDE1"/>
<path d="M113.068 167.525C113.068 167.525 102.141 163.41 100.257 171.265C98.3736 179.12 104.779 214.279 104.779 214.279C104.779 214.279 108.923 240.835 111.561 241.583C114.198 242.331 125.878 242.705 127.762 239.339C129.646 235.972 122.11 201.562 122.11 201.562L165.816 200.813C165.816 200.813 163.179 230.736 161.672 233.354C160.165 235.972 160.165 244.949 161.672 244.949C163.179 244.949 179.757 244.201 180.887 241.957C182.018 239.713 188.423 189.218 188.423 189.218C188.423 189.218 193.698 171.639 187.669 172.761C181.641 173.883 113.068 167.525 113.068 167.525V167.525Z" fill="#3F3D56"/>
<path d="M177.496 240.461C177.496 240.461 181.264 237.843 183.148 240.461C185.032 243.079 185.785 246.071 177.496 250.56C169.207 255.048 162.802 253.926 162.802 253.178V242.331L177.496 240.461Z" fill="#2F2E41"/>
<path d="M112.314 239.339C112.314 239.339 108.546 236.72 106.663 239.339C104.779 241.957 104.025 244.949 112.314 249.438C120.603 253.926 127.008 252.804 127.008 252.056V241.209L112.314 239.339Z" fill="#2F2E41"/>
<path d="M148.28 40.0072C146.854 39.9581 145.43 40.1595 144.075 40.6023C143.024 41.0217 142.02 41.5491 141.079 42.1757L134.758 46.0778C134.221 46.3084 133.766 46.6915 133.448 47.1789C133.13 47.6664 132.965 48.2362 132.974 48.8166L132.184 54.6889C131.985 56.1708 131.801 57.7556 132.469 59.0955C133.027 60.2138 134.091 60.9791 134.965 61.8753C136.365 63.3157 137.307 65.1328 137.674 67.1006C138.126 69.5524 137.837 72.5049 139.791 74.0696C140.85 74.9168 142.292 75.077 143.649 75.1558C147.36 75.3709 151.084 75.2286 154.767 74.731C155.353 74.6874 155.924 74.5286 156.447 74.2637C157.112 73.8735 157.53 73.1848 157.921 72.524C159.333 70.1383 160.787 67.6004 160.772 64.8337C160.765 63.465 160.412 61.995 161.074 60.7943C161.424 60.284 161.803 59.7945 162.211 59.3283C163.031 58.1849 163.19 56.7158 163.324 55.3186C163.75 50.8559 163.304 47.4599 159.991 44.3163C156.898 41.3818 152.498 40.0343 148.28 40.0072V40.0072Z" fill="#2F2E41"/>
<path d="M112.654 211.713L100.08 275.168H106.367L118.418 212.753L112.654 211.713Z" fill="#2F2E41"/>
<path d="M152.998 216.914L160.857 289.732H166.097L161.381 214.833L152.998 216.914Z" fill="#2F2E41"/>
<path d="M174.48 214.834L185.482 263.206H190.722L180.243 213.793L174.48 214.834Z" fill="#2F2E41"/>
<path d="M132.564 214.833L130.992 253.323H135.184L138.328 214.833H132.564Z" fill="#2F2E41"/>
<path d="M103.747 204.951C103.747 204.951 95.3641 149.297 118.942 147.737C142.519 146.176 176.051 147.737 176.051 147.737C176.051 147.737 195.437 146.176 189.674 204.951C189.674 204.951 194.913 222.115 147.758 220.555C100.604 218.994 103.747 204.951 103.747 204.951Z" fill="#5262DE"/>
<path d="M318.567 227.678C318.567 237.383 312.756 240.772 305.587 240.772C298.417 240.772 292.606 237.383 292.606 227.678C292.606 217.973 305.587 205.627 305.587 205.627C305.587 205.627 318.567 217.973 318.567 227.678Z" fill="#5262DE"/>
<path d="M305.327 226.239L309.14 218.969L305.343 225.272L305.451 218.704L309.534 212.916L305.467 217.671L305.535 205.627L305.131 220.888L300.996 214.605L305.081 222.176L304.694 229.512L304.682 229.317L299.896 222.679L304.668 230.005L304.619 230.922L304.611 230.936L304.615 231.012L303.633 240.801H304.945L305.102 240.01L309.862 232.701L305.114 239.287L305.247 231.165L310.779 221.117L305.267 229.891L305.327 226.239Z" fill="#3F3D56"/>
<path d="M313.877 261.824H298.401L294.402 239.383H317.007L313.877 261.824Z" fill="#2F2E41"/>
<path d="M86.4737 110.111H54.28V147.58H86.4737V110.111Z" fill="#3F3D56"/>
<path d="M81.4782 115.925H59.2756V141.766H81.4782V115.925Z" fill="#F2F2F2"/>
<g clip-path="url(#clip0_11_257)">
<path d="M70.5 119.022L80 122.338L78.5973 135.026L70.5 139.425V119.022Z" fill="#C3002F"/>
<path d="M70.5 119L61 122.315L62.4027 135.003L70.5 139.403V119Z" fill="#DD0031"/>
<path d="M64.5704 134.557L70.5 121.295V125.503L68.7147 129.775H70.5V131.624H67.9496L66.7382 134.557H64.5704Z" fill="white"/>
<path d="M76.4297 134.557L70.5002 121.295V125.503L72.2854 129.775H70.5002V131.624H73.0505L74.2619 134.557H76.4297Z" fill="white"/>
</g>
<defs>
<clipPath id="clip0_11_257">
<rect width="19" height="20.4249" fill="white" transform="translate(61 119)"/>
</clipPath>
</defs>
</svg>
