<svg width="71" height="80" viewBox="0 0 71 80" fill="none" xmlns="http://www.w3.org/2000/svg">
<path d="M70.7789 23.4619C70.7907 22.222 70.4733 21.0011 69.859 19.924C69.3636 18.8626 68.4438 18.0842 67.3824 17.3766L39.0785 1.03109C37.9581 0.345038 36.6673 -0.0122336 35.3534 0.000319784C34.0396 0.0128731 32.7559 0.394554 31.6487 1.10192L3.4156 17.3766C2.35865 17.9604 1.4827 18.8238 0.883625 19.8721C0.28456 20.9205 -0.0145181 22.1134 0.0191359 23.3204V56.2237C0.0191359 57.6389 0.302174 58.8418 0.797492 59.8324C1.43668 60.8743 2.33988 61.7287 3.4156 62.309L31.6487 78.5837C32.7492 79.3019 34.0295 79.6959 35.3433 79.7209C36.6571 79.7459 37.9515 79.4009 39.0785 78.7253L67.3824 62.309C68.4581 61.7287 69.3613 60.8743 70.0005 59.8324C70.5346 58.7307 70.8013 57.5186 70.7789 56.2945V23.5327" fill="#999999"/>
<path d="M35.47 39.6591L0.668884 59.6875C1.30809 60.6818 2.16037 61.6761 3.29673 62.2443L31.6348 78.5795C32.7394 79.3003 34.0244 79.6958 35.3431 79.7209C36.6618 79.746 37.961 79.3997 39.0922 78.7216L67.5013 62.2443C68.581 61.6618 69.4876 60.8042 70.1291 59.7585L35.47 39.6591Z" fill="#666666"/>
<path d="M70.9099 23.3468C70.9218 22.1022 70.6032 20.8768 69.9866 19.7956L35.4695 39.753L70.1286 59.7814C70.6258 58.7871 70.9099 57.6507 70.9099 56.3723L70.9099 23.4178" fill="#808080"/>
<path d="M55.8535 32.1307V35.7528H59.6888V32.0597H61.6064V35.7528H65.2996V37.7415H61.6064V41.5767H65.2996V43.3523H61.6064V47.1875H59.6888V43.3523H55.9956V47.1875H54.078V43.3523H50.3848V41.5767H54.078V37.7415H50.3848V35.8239H54.078V32.1307H55.8535ZM59.6888 37.8125H55.9956V41.5767H59.6888V37.8125Z" fill="white"/>
<path d="M35.6121 13.2386C40.2387 13.2387 44.7834 14.4603 48.7865 16.7799C52.7897 19.0995 56.1095 22.4349 58.4104 26.4489L46.9047 33.054C45.7614 31.0773 44.1249 29.4347 42.1568 28.2888C40.1888 27.1428 37.9573 26.5331 35.6831 26.5199H35.6121C33.277 26.4797 30.9731 27.0592 28.935 28.1994C26.8969 29.3395 25.1975 30.9996 24.0099 33.0105C22.8223 35.0213 22.189 37.3111 22.1746 39.6464C22.1601 41.9817 22.765 44.2791 23.9276 46.3045C25.0902 48.3299 26.7689 50.0109 28.7928 51.1763C30.8166 52.3416 33.1132 52.9496 35.4485 52.9382C37.7839 52.9269 40.0745 52.2967 42.0869 51.1118C44.0994 49.927 45.7618 48.2298 46.9047 46.1932V46.2642L58.4104 52.9403C56.1229 56.9034 52.8453 60.2045 48.8987 62.5202C44.952 64.8359 40.4716 66.0868 35.8961 66.1506H35.6121C28.6049 66.1506 21.8848 63.367 16.93 58.4122C11.9752 53.4574 9.19159 46.7373 9.19159 39.7301C9.18224 36.2546 9.85873 32.8113 11.1823 29.5976C12.5059 26.384 14.4505 23.463 16.9048 21.0021C19.3591 18.5412 22.2748 16.5887 25.485 15.2566C28.6951 13.9244 32.1365 13.2386 35.6121 13.2386Z" fill="white"/>
</svg>
