<svg width="124" height="26" viewBox="0 0 124 26" fill="none" xmlns="http://www.w3.org/2000/svg">
<path d="M124 2.5C124 3.88071 122.881 5 121.5 5C120.119 5 119 3.88071 119 2.5C119 1.11929 120.119 0 121.5 0C122.881 0 124 1.11929 124 2.5Z" fill="#B090F2"/>
<path d="M0.603692 21C0.496369 21 0.395754 20.9598 0.301846 20.8793C0.221354 20.7854 0.181108 20.6847 0.181108 20.5774C0.181108 20.5103 0.187815 20.45 0.201231 20.3963L4.93015 7.47729C4.9704 7.32972 5.05089 7.20228 5.17163 7.09495C5.30578 6.97421 5.48689 6.91384 5.71495 6.91384H8.69317C8.92123 6.91384 9.09563 6.97421 9.21637 7.09495C9.35052 7.20228 9.43772 7.32972 9.47797 7.47729L14.1868 20.3963C14.2136 20.45 14.227 20.5103 14.227 20.5774C14.227 20.6847 14.1801 20.7854 14.0862 20.8793C14.0057 20.9598 13.905 21 13.7843 21H11.3092C11.1079 21 10.9537 20.953 10.8463 20.8591C10.7524 20.7518 10.6921 20.6579 10.6652 20.5774L9.88043 18.5249H4.50757L3.74289 20.5774C3.71606 20.6579 3.65569 20.7518 3.56178 20.8591C3.46788 20.953 3.30689 21 3.07883 21H0.603692ZM5.33262 15.6271H9.07551L7.18394 10.3146L5.33262 15.6271ZM16.3162 21C16.1686 21 16.0479 20.953 15.954 20.8591C15.8601 20.7652 15.8131 20.6445 15.8131 20.4969V7.41692C15.8131 7.26935 15.8601 7.14861 15.954 7.05471C16.0479 6.9608 16.1686 6.91384 16.3162 6.91384H21.7897C23.5203 6.91384 24.8819 7.31631 25.8747 8.12123C26.8808 8.91274 27.3839 10.0396 27.3839 11.5019C27.3839 12.4544 27.1491 13.2593 26.6796 13.9167C26.2235 14.574 25.6198 15.0704 24.8685 15.4058L27.6455 20.3561C27.6857 20.4366 27.7059 20.5103 27.7059 20.5774C27.7059 20.6847 27.6589 20.7854 27.565 20.8793C27.4845 20.9598 27.3839 21 27.2632 21H24.6069C24.352 21 24.1642 20.9396 24.0435 20.8189C23.9227 20.6847 23.8355 20.564 23.7819 20.4567L21.4878 16.0296H19.4152V20.4969C19.4152 20.6445 19.3682 20.7652 19.2743 20.8591C19.1804 20.953 19.0596 21 18.9121 21H16.3162ZM19.4152 13.1922H21.7494C22.38 13.1922 22.8495 13.038 23.158 12.7294C23.48 12.4209 23.641 11.9983 23.641 11.4617C23.641 10.9385 23.4867 10.5159 23.1782 10.1939C22.883 9.87194 22.4068 9.71095 21.7494 9.71095H19.4152V13.1922ZM30.2294 21C30.0819 21 29.9611 20.953 29.8672 20.8591C29.7733 20.7652 29.7263 20.6445 29.7263 20.4969V7.41692C29.7263 7.26935 29.7733 7.14861 29.8672 7.05471C29.9611 6.9608 30.0819 6.91384 30.2294 6.91384H32.9259C33.0735 6.91384 33.1942 6.9608 33.2881 7.05471C33.382 7.14861 33.429 7.26935 33.429 7.41692V20.4969C33.429 20.6445 33.382 20.7652 33.2881 20.8591C33.1942 20.953 33.0735 21 32.9259 21H30.2294ZM42.0058 21.2012C40.7716 21.2012 39.6984 21 38.7861 20.5975C37.8739 20.1951 37.1629 19.5914 36.6531 18.7865C36.1433 17.9681 35.8616 16.9486 35.8079 15.7278C35.7945 15.1509 35.7878 14.574 35.7878 13.9972C35.7878 13.4203 35.7945 12.8367 35.8079 12.2465C35.8616 11.0391 36.1433 10.0262 36.6531 9.20788C37.1763 8.37612 37.894 7.75231 38.8063 7.33643C39.7185 6.92055 40.785 6.71261 42.0058 6.71261C43.2132 6.71261 44.273 6.92055 45.1853 7.33643C46.1109 7.75231 46.8354 8.37612 47.3586 9.20788C47.8818 10.0262 48.1635 11.0391 48.2037 12.2465C48.2306 12.8367 48.244 13.4203 48.244 13.9972C48.244 14.574 48.2306 15.1509 48.2037 15.7278C48.1501 16.9486 47.8683 17.9681 47.3586 18.7865C46.8488 19.5914 46.1378 20.1951 45.2255 20.5975C44.3133 21 43.24 21.2012 42.0058 21.2012ZM42.0058 18.3035C42.7168 18.3035 43.2937 18.0889 43.7364 17.6596C44.1925 17.2303 44.434 16.5461 44.4608 15.607C44.4877 15.0167 44.5011 14.46 44.5011 13.9368C44.5011 13.4136 44.4877 12.8703 44.4608 12.3068C44.434 11.6763 44.3133 11.1665 44.0986 10.7775C43.8974 10.375 43.6157 10.0799 43.2535 9.89206C42.8912 9.70424 42.4754 9.61034 42.0058 9.61034C41.5497 9.61034 41.1405 9.70424 40.7783 9.89206C40.4161 10.0799 40.1277 10.375 39.913 10.7775C39.6984 11.1665 39.5776 11.6763 39.5508 12.3068C39.5374 12.8703 39.5307 13.4136 39.5307 13.9368C39.5307 14.46 39.5374 15.0167 39.5508 15.607C39.5911 16.5461 39.8325 17.2303 40.2752 17.6596C40.7179 18.0889 41.2948 18.3035 42.0058 18.3035ZM51.0796 21C50.932 21 50.8113 20.953 50.7174 20.8591C50.6235 20.7652 50.5765 20.6445 50.5765 20.4969V7.41692C50.5765 7.26935 50.6235 7.14861 50.7174 7.05471C50.8113 6.9608 50.932 6.91384 51.0796 6.91384H53.2127C53.4407 6.91384 53.6017 6.96751 53.6956 7.07483C53.8029 7.16874 53.87 7.24252 53.8968 7.29618L58.8069 15.0436V7.41692C58.8069 7.26935 58.8538 7.14861 58.9477 7.05471C59.0416 6.9608 59.1624 6.91384 59.3099 6.91384H61.7247C61.8723 6.91384 61.993 6.9608 62.0869 7.05471C62.1808 7.14861 62.2278 7.26935 62.2278 7.41692V20.4969C62.2278 20.6311 62.1808 20.7518 62.0869 20.8591C61.993 20.953 61.8723 21 61.7247 21H59.5715C59.3569 21 59.1959 20.9463 59.0886 20.839C58.9947 20.7317 58.9343 20.6579 58.9075 20.6177L53.9975 13.1721V20.4969C53.9975 20.6445 53.9505 20.7652 53.8566 20.8591C53.7627 20.953 53.6419 21 53.4944 21H51.0796ZM69.8271 21C69.6795 21 69.5588 20.953 69.4649 20.8591C69.371 20.7652 69.324 20.6445 69.324 20.4969V7.41692C69.324 7.26935 69.371 7.14861 69.4649 7.05471C69.5588 6.9608 69.6795 6.91384 69.8271 6.91384H75.4615C76.575 6.91384 77.5409 7.08825 78.3593 7.43705C79.191 7.77243 79.835 8.28221 80.2911 8.9664C80.7606 9.65058 80.9954 10.5159 80.9954 11.5623C80.9954 12.5953 80.7606 13.4471 80.2911 14.1179C79.835 14.7887 79.191 15.285 78.3593 15.607C77.5409 15.929 76.575 16.09 75.4615 16.09H73.0669V20.4969C73.0669 20.6445 73.0132 20.7652 72.9059 20.8591C72.812 20.953 72.6913 21 72.5437 21H69.8271ZM73.0065 13.313H75.3609C75.9378 13.313 76.3939 13.1654 76.7293 12.8703C77.0781 12.5751 77.2525 12.1257 77.2525 11.522C77.2525 11.0122 77.1049 10.583 76.8098 10.2342C76.5147 9.88535 76.0317 9.71095 75.3609 9.71095H73.0065V13.313ZM81.1353 21C81.028 21 80.9274 20.9598 80.8335 20.8793C80.753 20.7854 80.7127 20.6847 80.7127 20.5774C80.7127 20.5103 80.7194 20.45 80.7328 20.3963L85.4618 7.47729C85.502 7.32972 85.5825 7.20228 85.7032 7.09495C85.8374 6.97421 86.0185 6.91384 86.2466 6.91384H89.2248C89.4528 6.91384 89.6272 6.97421 89.748 7.09495C89.8821 7.20228 89.9693 7.32972 90.0096 7.47729L94.7184 20.3963C94.7452 20.45 94.7586 20.5103 94.7586 20.5774C94.7586 20.6847 94.7117 20.7854 94.6178 20.8793C94.5373 20.9598 94.4367 21 94.3159 21H91.8408C91.6396 21 91.4853 20.953 91.378 20.8591C91.284 20.7518 91.2237 20.6579 91.1968 20.5774L90.412 18.5249H85.0392L84.2745 20.5774C84.2477 20.6579 84.1873 20.7518 84.0934 20.8591C83.9995 20.953 83.8385 21 83.6104 21H81.1353ZM85.8642 15.6271H89.6071L87.7156 10.3146L85.8642 15.6271ZM101.926 21.2012C100.719 21.2012 99.6592 21.0067 98.7469 20.6177C97.8481 20.2152 97.1505 19.6048 96.6541 18.7865C96.1578 17.9547 95.9096 16.9016 95.9096 15.6271V7.41692C95.9096 7.26935 95.9565 7.14861 96.0504 7.05471C96.1443 6.9608 96.2651 6.91384 96.4127 6.91384H99.0085C99.1561 6.91384 99.2768 6.9608 99.3707 7.05471C99.4647 7.14861 99.5116 7.26935 99.5116 7.41692V15.607C99.5116 16.479 99.7195 17.1364 100.135 17.5791C100.565 18.0084 101.162 18.223 101.926 18.223C102.678 18.223 103.261 18.0084 103.677 17.5791C104.106 17.1364 104.321 16.479 104.321 15.607V7.41692C104.321 7.26935 104.368 7.14861 104.462 7.05471C104.569 6.9608 104.69 6.91384 104.824 6.91384H107.44C107.574 6.91384 107.688 6.9608 107.782 7.05471C107.89 7.14861 107.943 7.26935 107.943 7.41692V15.6271C107.943 16.9016 107.695 17.9547 107.199 18.7865C106.702 19.6048 106.005 20.2152 105.106 20.6177C104.207 21.0067 103.147 21.2012 101.926 21.2012ZM111.115 21C110.967 21 110.846 20.953 110.753 20.8591C110.659 20.7652 110.612 20.6445 110.612 20.4969V7.41692C110.612 7.26935 110.659 7.14861 110.753 7.05471C110.846 6.9608 110.967 6.91384 111.115 6.91384H113.771C113.905 6.91384 114.019 6.9608 114.113 7.05471C114.22 7.14861 114.274 7.26935 114.274 7.41692V17.9614H120.351C120.499 17.9614 120.62 18.0151 120.713 18.1224C120.821 18.2163 120.874 18.337 120.874 18.4846V20.4969C120.874 20.6445 120.821 20.7652 120.713 20.8591C120.62 20.953 120.499 21 120.351 21H111.115Z" fill="url(#paint0_linear_509_19)"/>
<defs>
<linearGradient id="paint0_linear_509_19" x1="122" y1="14.2673" x2="2.00742e-07" y2="14.2673" gradientUnits="userSpaceOnUse">
<stop stop-color="#997AF1"/>
<stop offset="1" stop-color="#6871E3"/>
</linearGradient>
</defs>
</svg>
