<svg width="81" height="82" viewBox="0 0 81 82" fill="none" xmlns="http://www.w3.org/2000/svg">
<path d="M40.9495 81.5015C63.0688 81.5015 81 63.4534 81 41.19C81 18.9265 63.0688 0.878418 40.9495 0.878418C18.8302 0.878418 0.898987 18.9265 0.898987 41.19C0.898987 63.4534 18.8302 81.5015 40.9495 81.5015Z" fill="url(#paint0_linear_701_55)"/>
<path d="M55.3524 23.8907C56.9776 24.1332 58.0991 25.658 57.8596 27.2957C57.6196 28.9341 56.108 30.0672 54.4819 29.8246C51.8109 29.4261 47.7207 33.7072 43.1326 42.5277C37.2199 53.8943 31.704 59.3221 25.8611 58.8865C24.2224 58.7641 22.9935 57.3255 23.1144 55.6746C23.2352 54.0228 24.6609 52.7819 26.2998 52.9042C29.0755 53.1112 33.2338 48.6442 37.8651 39.7412C43.8168 28.2997 49.4107 23.0044 55.3524 23.8907Z" fill="white"/>
<defs>
<linearGradient id="paint0_linear_701_55" x1="21.5973" y1="19.5949" x2="64.3496" y2="52.3842" gradientUnits="userSpaceOnUse">
<stop stop-color="#999999"/>
<stop offset="1" stop-color="#808080"/>
</linearGradient>
</defs>
</svg>
