<svg width="100" height="80" viewBox="0 0 100 80" fill="none" xmlns="http://www.w3.org/2000/svg">
<g clip-path="url(#clip0_701_52)">
<path fill-rule="evenodd" clip-rule="evenodd" d="M49.7321 10C36.47 10 28.1109 16.6712 24.8155 29.9332C29.7988 23.262 35.5859 20.7704 42.2571 22.4583C46.0348 23.4228 48.7675 26.1556 51.7415 29.2098C56.6444 34.1931 62.2707 39.8999 74.6486 39.8999C87.9106 39.8999 96.2697 33.2286 99.5651 19.9666C94.5818 26.6378 88.7948 29.1295 82.1236 27.4416C78.3459 26.4771 75.6131 23.7443 72.6392 20.69C67.7363 15.7067 62.1099 10 49.7321 10ZM24.8155 39.8195C11.5535 39.8195 3.1944 46.4907 -0.101013 59.7527C4.88229 53.0815 10.6694 50.5898 17.3406 52.2777C21.1182 53.2423 23.851 55.975 26.8249 59.0293C31.7279 64.0126 37.3542 69.7193 49.7321 69.7193C62.9941 69.7193 71.3532 63.0481 74.6486 49.7861C69.6653 56.4573 63.8782 58.9489 57.207 57.261C53.4294 56.2965 50.6966 53.5637 47.7227 50.5095C42.8197 45.6065 37.1934 39.8195 24.8155 39.8195Z" fill="#808080"/>
</g>
<defs>
<clipPath id="clip0_701_52">
<rect width="100" height="80" fill="white"/>
</clipPath>
</defs>
</svg>
